<?xml version="1.0" encoding="UTF-8"?>
<svg version="1.1" xmlns="http://www.w3.org/2000/svg" width="2000" height="368">
<path d="M0 0 C1.18190918 0.29801514 1.18190918 0.29801514 2.38769531 0.60205078 C31.45263942 8.10141305 57.69375723 23.49606517 74.1875 49.25 C90.47113011 76.99367993 92.56218229 109.31150771 84.74609375 140.18359375 C77.15337901 167.96409105 61.98961888 193.32191031 37.1875 208.75 C31.0764268 212.20820421 24.79410765 214.30375299 18 216 C17.23945313 216.19335938 16.47890625 216.38671875 15.6953125 216.5859375 C3.80925631 218.41191135 -8.75678008 218.02401107 -19.375 212.125 C-28.24308234 204.9460762 -30.17919607 193.8289918 -32 183 C-32.40089844 183.60585937 -32.80179688 184.21171875 -33.21484375 184.8359375 C-43.99239456 200.72121647 -56.41592228 212.12059645 -75.25 217.3125 C-88.56620185 219.82590289 -103.23070045 218.57498655 -114.9140625 211.42578125 C-126.18840343 203.71953698 -132.42118435 193.41241697 -135 180 C-135.41807113 175.59440941 -135.47683324 171.2357586 -135.4375 166.8125 C-135.43065186 165.62648193 -135.42380371 164.44046387 -135.41674805 163.21850586 C-135.24698638 153.90068841 -134.12188472 145.79245565 -131 137 C-130.63777344 135.96488281 -130.27554688 134.92976562 -129.90234375 133.86328125 C-119.98332893 108.14109027 -101.35876342 88.34200971 -76.5234375 76.5 C-54.79842871 67.25121577 -26.96413472 65.63547252 -4.6796875 73.87890625 C3.21709189 77.18266089 8.99872838 80.88509572 14 88 C16.43613733 95.30841198 15.15373179 103.48907033 13.8125 110.9375 C13.59207031 112.16339844 13.37164062 113.38929688 13.14453125 114.65234375 C11.80030643 118.58408666 10.22469197 120.41732815 7 123 C3.75 123.25 3.75 123.25 1 123 C-3.42239067 127.42239067 -1.30787087 143.12860768 -1.3190918 149.02832031 C-1.19109804 160.7310787 -0.50518488 172.22542012 8 181 C12.66404562 183.65433491 17.75180854 183.18829457 22.7734375 181.81640625 C33.99973481 177.70009724 40.15158512 168.82267245 45.21289062 158.46386719 C53.69612502 140.02753105 55.50989069 117.20380496 48.72314453 97.90478516 C44.18125431 85.94130524 38.20196158 76.8572195 29 68 C28.27039063 67.26265625 27.54078125 66.5253125 26.7890625 65.765625 C7.89261362 47.64189336 -20.4968224 40.59052117 -45.9375 40.625 C-46.61708771 40.62554382 -47.29667542 40.62608765 -47.99685669 40.62664795 C-83.09431356 40.75529111 -112.50466364 54.58210026 -137.26953125 79.26171875 C-158.53394902 101.79231902 -168.89298468 131.16131109 -168.24609375 161.93359375 C-167.38260989 184.57749134 -158.94452115 203.79193304 -143 220 C-142.25105469 220.76183594 -141.50210938 221.52367187 -140.73046875 222.30859375 C-116.31612041 245.67025045 -80.20129839 252.33908207 -47.55859375 252 C-32.46179634 251.56708568 -17.44324428 249.49303722 -3.078125 244.76953125 C0.42542455 243.89364386 3.40132216 243.74386635 7 244 C10.01922125 245.99140125 11.66162347 247.43871881 12.4453125 251.0546875 C12.80659415 258.01538065 10.5228533 262.91167958 6.1875 268.21875 C-12.68854886 288.48274363 -44.16357085 294.06350106 -70.7590332 295.10839844 C-108.59246515 295.8937117 -144.30936828 288.51879975 -172.64892578 261.75366211 C-193.01833797 241.84645652 -204.93448014 213.65064041 -206.16113281 185.2722168 C-206.20721236 181.07710264 -206.24666338 176.88287179 -206.25 172.6875 C-206.25067474 171.92678192 -206.25134949 171.16606384 -206.25204468 170.3822937 C-206.23553632 158.6630592 -205.66339949 147.45314209 -203 136 C-202.83371094 135.23800293 -202.66742188 134.47600586 -202.49609375 133.69091797 C-195.76964911 103.30358149 -180.33962204 74.58755315 -159 52 C-157.87037767 50.67058052 -156.74520688 49.33736282 -155.625 48 C-119.06222325 6.45139006 -53.66103523 -14.05287817 0 0 Z M-94.2734375 127.62890625 C-100.32932502 135.94547576 -101.73578736 144.90721873 -101 155 C-99.76987723 162.03088518 -96.47913766 167.42889268 -91 172 C-83.51621936 176.52596615 -75.65857858 177.26802881 -67.2109375 175.375 C-54.69430546 171.42609074 -46.09516894 162.3753411 -40 151 C-34.78836596 139.57599421 -33.43327211 127.35327058 -32 115 C-33.70725008 114.51698797 -35.41585974 114.03878042 -37.125 113.5625 C-38.07632813 113.29566406 -39.02765625 113.02882813 -40.0078125 112.75390625 C-60.29902044 107.64136952 -80.38925774 111.22787319 -94.2734375 127.62890625 Z " fill="#000000" transform="translate(209,72)"/>
<path d="M0 0 C0.88631104 0.40943848 0.88631104 0.40943848 1.79052734 0.82714844 C23.15565862 10.88459645 36.9241235 26.6742749 45.390625 48.6015625 C52.52141826 72.05283329 49.01413145 99.19568651 37.59375 120.640625 C34.22043914 126.49008957 30.32061511 131.81881062 26 137 C25.32066406 137.8146875 24.64132812 138.629375 23.94140625 139.46875 C8.47532327 157.33331644 -12.38753304 168.86069615 -35 175 C-33.37823046 179.92288622 -30.55417485 183.77114522 -27.5625 187.9375 C-26.76114624 189.06031372 -26.76114624 189.06031372 -25.94360352 190.20581055 C-9.18735846 213.51916964 10.37267515 238.62926812 40.21875 244.62109375 C46.3290666 245.23338787 52.44010969 245.15318054 58.57470703 244.97851562 C59.49106934 244.95595703 60.40743164 244.93339844 61.3515625 244.91015625 C62.17479004 244.88058838 62.99801758 244.85102051 63.84619141 244.82055664 C66 245 66 245 69 247 C72.30569674 256.91709023 70.21614651 268.73614867 66 278 C60.85832746 287.39684982 53.44763717 293.1092372 43.296875 296.0859375 C26.51259983 300.11346411 10.51712073 295.57154227 -4 287 C-7.85656631 284.1965542 -11.43592785 281.162896 -15 278 C-16.24961903 276.97870036 -17.49956997 275.95780654 -18.75 274.9375 C-22.56657193 271.61600226 -25.7900205 267.90232802 -29 264 C-29.80179688 263.03578125 -30.60359375 262.0715625 -31.4296875 261.078125 C-53.38899327 234.1961362 -86.13325549 188.19965747 -84.453125 152.19140625 C-83.6241959 146.35317287 -81.80597951 143.48491649 -77.1875 139.6875 C-71.68158377 136.77260317 -66.35683068 135.76566507 -60.17578125 135.47265625 C-58.26055664 135.36727539 -58.26055664 135.36727539 -56.30664062 135.25976562 C-53.66355476 135.12922691 -51.02032441 135.00157857 -48.37695312 134.87695312 C-37.61492433 134.27696056 -27.5752568 132.92719232 -18.0625 127.625 C-17.02222656 127.06039062 -15.98195313 126.49578125 -14.91015625 125.9140625 C-11.85760202 123.90634227 -9.55923857 121.59039452 -7 119 C-6.34 119 -5.68 119 -5 119 C-4.58041016 118.12214844 -4.58041016 118.12214844 -4.15234375 117.2265625 C-3.07740041 115.14955333 -1.87967676 113.30357656 -0.5625 111.375 C6.13475948 100.49690695 6.95965912 86.90388706 4.23828125 74.5390625 C0.52290139 63.8187965 -5.61109702 57.16503143 -15.5 51.875 C-40.7887253 39.77072319 -68.78784571 43.15730117 -95 50 C-95.07347656 51.10782837 -95.07347656 51.10782837 -95.1484375 52.23803711 C-96.97086609 78.69663671 -99.88917931 105.02742807 -102.86668301 131.37564754 C-106.98777767 166.8444954 -106.98777767 166.8444954 -108.3125 202.5 C-108.31100952 203.21849121 -108.30951904 203.93698242 -108.3079834 204.67724609 C-108.23323388 224.8707714 -105.95592133 241.41615188 -92.25 256.98828125 C-88.03294509 262.04671971 -86.53624691 266.37043884 -87 273 C-88.84582021 281.52947563 -94.03425321 286.60768965 -101.109375 291.35546875 C-112.39211125 297.77443086 -127.29952247 299.91222775 -139.921875 296.71484375 C-145.66823505 294.7381823 -149.0246913 291.47204616 -151.96484375 286.30078125 C-158.84828218 271.00136526 -154.77654371 250.21328457 -152.875 234.125 C-152.65159877 232.17126259 -152.4285429 230.21748566 -152.20581055 228.26367188 C-150.39156628 212.5470892 -148.29988371 196.86825946 -146.05615234 181.20751953 C-142.63201711 157.14927488 -140.81525877 133.20464685 -140.86962891 108.9074707 C-140.8749875 106.06911872 -140.8696469 103.23092535 -140.86328125 100.39257812 C-140.85954518 88.89482035 -141.22230856 77.47139163 -142 66 C-142.61915283 66.24089355 -143.23830566 66.48178711 -143.8762207 66.72998047 C-148.9126472 68.64781568 -152.66019988 69.60194004 -158 68 C-162.5684791 63.4315209 -162.26653266 58.05081469 -162.3125 52 C-162.3023003 39.9337513 -159.99045179 32.08764036 -151.39453125 23.26953125 C-130.28291403 3.25998867 -98.46565571 -6.39092697 -70 -9 C-68.70707031 -9.12117188 -67.41414063 -9.24234375 -66.08203125 -9.3671875 C-43.84179281 -11.18613062 -20.45220367 -9.5256839 0 0 Z " fill="#000000" transform="translate(1673,26)"/>
<path d="M0 0 C6.23457959 7.05269184 7.55898031 14.03297005 7.203125 23.33203125 C5.9974557 32.49314145 0.92688689 39.34733612 -6.2734375 44.953125 C-12.44877091 48.63633573 -18.90612398 52.10672569 -26.2734375 50.953125 C-31.50782881 49.15137606 -36.49985027 46.76646272 -41.52734375 44.4609375 C-48.08757938 41.52669537 -54.54292225 39.12955072 -61.4609375 37.203125 C-62.52852295 36.90535156 -62.52852295 36.90535156 -63.61767578 36.6015625 C-84.63498058 30.99054261 -107.51249684 29.88183907 -127.12890625 40.6171875 C-134.84160616 45.42182023 -139.38240526 51.28002829 -142.2734375 59.953125 C-143.06311716 67.6525017 -141.46499061 73.44664002 -137.3984375 79.953125 C-121.03579877 97.65539497 -88.66792402 103.05087037 -66.51171875 108.6953125 C-47.9222683 113.43987173 -29.60970302 118.98510471 -14.2734375 130.953125 C-13.44585938 131.58863281 -12.61828125 132.22414062 -11.765625 132.87890625 C-0.69290566 141.99654148 4.34731278 155.01664994 6.11328125 169.01953125 C8.56124718 197.47316126 0.83317916 224.15393404 -17.31152344 246.37084961 C-38.55470597 271.56058669 -67.9919871 285.81039178 -100.65722656 288.7722168 C-129.69020411 290.77981631 -160.81449592 286.96284911 -184.3984375 268.453125 C-188.71006443 264.66431511 -192.36645907 260.91625891 -195.2734375 255.953125 C-195.758125 255.128125 -196.2428125 254.303125 -196.7421875 253.453125 C-201.62091633 243.69566735 -201.91316712 232.24468863 -199.5390625 221.6875 C-197.74588525 216.77830982 -195.39276113 213.26867816 -191.2734375 209.953125 C-190.5309375 209.355 -189.7884375 208.756875 -189.0234375 208.140625 C-184.32703344 206.11263234 -179.90548547 206.19073869 -175.0078125 207.609375 C-169.90972637 209.67713021 -165.95116584 212.65694302 -161.69921875 216.09375 C-146.89058619 227.44465032 -126.02952866 235.20908171 -107.2734375 235.953125 C-106.21511719 236.0046875 -105.15679687 236.05625 -104.06640625 236.109375 C-84.0982824 236.61974238 -63.87727135 233.124705 -48.5234375 219.515625 C-41.45499733 211.46545703 -38.78652386 204.79641139 -39.03125 193.87890625 C-39.60032322 187.00413465 -42.24398601 181.88430285 -46.98828125 176.88671875 C-61.77027295 164.37887962 -85.23575352 160.68266523 -103.3984375 155.953125 C-125.69019827 150.12268805 -149.75188691 143.81255221 -167.2734375 127.953125 C-168.02882813 127.30085937 -168.78421875 126.64859375 -169.5625 125.9765625 C-180.83921169 115.60500493 -185.68809442 102.55391305 -186.5859375 87.4765625 C-187.61734619 59.7631839 -176.49357966 35.7562925 -157.89697266 15.63574219 C-135.91218322 -7.14909522 -104.84090944 -19.01599068 -73.51953125 -20.01513672 C-48.84595868 -20.36378503 -18.88358651 -17.87335349 0 0 Z " fill="#000000" transform="translate(528.2734375,36.046875)"/>
<path d="M0 0 C6.00907909 6.78825241 6.35821335 12.77023194 6.2578125 21.578125 C5.45533598 32.49878378 -0.05775946 40.95003051 -8.1328125 48.1328125 C-14.05284361 52.75468934 -18.738248 54.64429806 -26.27880859 54.58984375 C-31.0473101 53.99005367 -34.62197464 51.56810938 -38.63671875 49.05859375 C-60.57309383 36.1507211 -87.401834 33.17503022 -112.15795898 39.48022461 C-114.12067153 40.02942934 -116.06692388 40.63647151 -118.01171875 41.24609375 C-119.17316406 41.60832031 -120.33460937 41.97054687 -121.53125 42.34375 C-144.80337364 50.48761296 -163.26230262 68.24476506 -173.97802734 90.22851562 C-186.97414572 118.42122393 -190.7608199 152.64506693 -180.01171875 182.24609375 C-175.67592741 193.24240937 -170.36044957 204.08604899 -161.77734375 212.4140625 C-160.01171875 214.24609375 -160.01171875 214.24609375 -160.01171875 216.24609375 C-159.44066406 216.50003906 -158.86960937 216.75398437 -158.28125 217.015625 C-155.74779871 218.38918293 -153.86282512 220.03156328 -151.69921875 221.93359375 C-133.46618136 236.62131831 -110.37085706 239.17195818 -87.73535156 237.03076172 C-68.2189509 234.55480044 -48.75032849 225.00844402 -34.01171875 212.24609375 C-32.03790641 210.59384289 -30.05867763 208.94804213 -28.07421875 207.30859375 C-27.17832031 206.55707031 -26.28242187 205.80554688 -25.359375 205.03125 C-20.74991888 201.52622263 -15.58952032 201.58664923 -10.01171875 202.24609375 C-6.47757776 204.63163892 -5.38534105 207.29837253 -4.01171875 211.24609375 C-2.16566452 224.83391148 -8.33365486 236.65205752 -16.234375 247.21875 C-36.54529795 272.67982774 -68.97229645 286.91080006 -100.80859375 290.77734375 C-131.31053636 293.8531699 -162.88273952 288.81669042 -187.29052734 269.20117188 C-211.79541607 248.6277416 -224.80483368 219.03826604 -227.78466797 187.49511719 C-231.59254719 133.00559391 -217.50369896 79.55674254 -181.6484375 37.65283203 C-154.0885517 5.95300661 -117.38252556 -13.66420953 -75.32421875 -17.19140625 C-49.98313273 -18.92701593 -19.5624799 -18.44462391 0 0 Z " fill="#000000" transform="translate(1991.01171875,33.75390625)"/>
<path d="M0 0 C8.53144589 6.33764552 11.95839067 16.09557354 13.90234375 26.1953125 C14.06702148 27.04915527 14.23169922 27.90299805 14.40136719 28.78271484 C25.24141467 89.02547378 14.76186735 153.00068724 3.77734375 212.3203125 C5.35113072 210.74652553 5.94232695 208.780657 6.82421875 206.74609375 C21.53085923 173.35984975 40.34499505 140.40497206 75.77734375 126.3203125 C90.00339269 121.24800649 109.72957279 121.89934583 123.40625 128.0078125 C136.49138342 135.25098355 143.46248687 146.27028266 147.77734375 160.3203125 C151.38049693 176.85786169 148.07564401 193.30544361 143.77734375 209.3203125 C143.30636157 211.11954846 142.83629623 212.91902468 142.3671875 214.71875 C141.71833564 217.20109111 141.06522561 219.68146556 140.38989258 222.15673828 C136.85749379 235.14498576 135.93487185 248.34769711 141.9609375 260.7578125 C147.17331283 269.49924649 155.28435409 274.22456281 164.74609375 277.3984375 C166.77734375 278.3203125 166.77734375 278.3203125 168.77734375 281.3203125 C170.18725404 290.10766032 167.19112056 297.99216097 162.96484375 305.5703125 C156.91666275 313.17374005 151.38365135 318.14926775 141.58203125 319.88671875 C130.45398278 321.06922949 118.90134912 320.04057074 109.734375 313.1015625 C98.94743733 303.28351145 94.43121318 290.01574824 93.55859375 275.7421875 C93.05269384 254.57870781 99.01320966 234.10584436 103.97705078 213.70751953 C106.2426016 204.11866899 108.14008518 193.13053056 102.77734375 184.3203125 C99.69737829 180.21369189 95.69294753 178.43859225 90.77734375 177.3203125 C78.21682012 175.82886263 65.77901633 179.66833734 55.77734375 187.3203125 C37.31964889 203.22194842 27.57384285 224.97369013 18.66601562 247.16455078 C17.89349842 249.0385417 17.05211819 250.88385573 16.19921875 252.72265625 C12.36753036 261.63023069 12.1880434 270.11431714 12.22875977 279.73266602 C12.15886254 292.36299836 8.52565427 303.03179756 -0.22265625 312.3203125 C-8.93366439 319.12280556 -18.26547264 321.52487706 -29.22265625 320.3203125 C-33.803602 318.85585268 -36.53761193 317.34787898 -39.22265625 313.3203125 C-39.77599444 302.8215448 -36.69807631 291.54066612 -34.95611572 281.24356079 C-30.37044207 254.06556239 -26.14093377 226.83924954 -24.22265625 199.3203125 C-24.13508057 198.11600586 -24.04750488 196.91169922 -23.95727539 195.67089844 C-23.00684531 181.52355271 -23.02389982 167.36897784 -23.03515625 153.1953125 C-23.03542816 151.91228241 -23.03570007 150.62925232 -23.03598022 149.30734253 C-23.07380056 110.51184451 -23.62067156 72.94459291 -40.97094727 37.44824219 C-43.97458985 31.02804961 -45.24996356 25.41807211 -44.22265625 18.3203125 C-40.94574188 10.04517828 -33.37654633 3.51821621 -25.41015625 -0.1171875 C-17.20266575 -3.45101333 -7.93003182 -4.63801452 0 0 Z " fill="#000000" transform="translate(890.22265625,3.6796875)"/>
<path d="M0 0 C5.76805194 6.39404207 7.43038719 13.26319658 7.25390625 21.7578125 C6.94875956 25.65430106 6.41659418 29.46288546 5.75 33.3125 C5.58624878 34.3168811 5.58624878 34.3168811 5.41918945 35.34155273 C4.52889029 40.02656964 2.89012302 43.23523449 0 47 C-0.47050781 47.61488281 -0.94101563 48.22976562 -1.42578125 48.86328125 C-3.69847139 50.50435527 -5.42481873 50.29513693 -8.1875 50.1875 C-9.08855469 50.16042969 -9.98960937 50.13335937 -10.91796875 50.10546875 C-11.60503906 50.07066406 -12.29210938 50.03585938 -13 50 C-20.38665325 73.46348681 -19.49296348 102.36566429 -8.3125 124.3125 C-3.31948954 130.11518784 3.46965176 132.42403602 10.73828125 134.2265625 C13.31634916 135.10818158 14.98288246 136.17435278 17 138 C19.88467404 146.65402212 17.68113684 155.90348339 14 164 C8.66155513 172.002231 1.83206328 177.47271313 -7.62109375 179.5859375 C-17.1963783 180.83670036 -27.65237926 179.81442002 -35.94140625 174.59765625 C-49.65118723 163.9576175 -52.2002242 149.15985949 -55 133 C-55.59425781 133.87140625 -56.18851563 134.7428125 -56.80078125 135.640625 C-70.27280974 155.11673155 -86.39138622 171.68533045 -110 178 C-110.8353125 178.22558594 -111.670625 178.45117188 -112.53125 178.68359375 C-131.45602296 182.91830375 -151.5063711 180.17271723 -168 170 C-181.90260818 159.74896606 -189.49409476 145.33021221 -192.4921875 128.49609375 C-196.9148094 94.48253699 -187.1703647 60.67682378 -166.69140625 33.41015625 C-146.00083561 6.75363954 -116.53096274 -11.79264747 -82.890625 -16.6640625 C-55.20499717 -19.88158141 -22.2679694 -19.18355472 0 0 Z M-140 52 C-149.31082888 63.11656539 -153.16959429 74.9255365 -153.25 89.1875 C-153.270625 90.08275391 -153.29125 90.97800781 -153.3125 91.90039062 C-153.37641261 102.96526054 -150.25947687 111.61502284 -143 120 C-135.54921444 127.23324437 -127.44234802 130.39217062 -117.14453125 131.0546875 C-102.29271973 130.79639513 -89.00465512 125.70100207 -78.1796875 115.33203125 C-62.63618479 98.70215469 -55.02914392 78.70104753 -51.1875 56.5 C-51.06334717 55.78271729 -50.93919434 55.06543457 -50.8112793 54.32641602 C-50.00285672 49.17577979 -49.90252823 44.21217467 -50 39 C-80.60944219 27.85016882 -115.77894834 26.28555017 -140 52 Z " fill="#000000" transform="translate(1277,145)"/>
<path d="M0 0 C4.85793114 4.90822029 6.57934866 10.30052416 6.63671875 17.15625 C5.33061973 26.98101711 0.06722975 33.52653678 -7.61328125 39.40625 C-13.56020326 43.51650358 -19.38967462 46.36152867 -26.48828125 47.78125 C-30.95705918 46.80977654 -33.85584515 43.98224137 -37.36328125 41.15625 C-49.46636668 32.09829054 -64.64703775 30.28876617 -79.36328125 31.15625 C-87.80174831 32.40639327 -94.04915874 34.12045798 -100.30078125 39.96875 C-101.97770238 43.42123468 -101.44456003 45.53078585 -100.36328125 49.15625 C-92.50378491 58.54398174 -76.68711395 59.07628285 -65.28265381 60.67871094 C-15.74634215 67.71512576 -15.74634215 67.71512576 -3.36328125 84.15625 C3.32471328 95.99185548 3.46106555 111.37898887 0.63671875 124.46875 C-2.78509332 135.73490483 -8.67925021 146.28302368 -16.36328125 155.15625 C-16.97171875 155.960625 -17.58015625 156.765 -18.20703125 157.59375 C-31.1559716 172.98234578 -52.78956317 181.42008802 -72.36328125 183.15625 C-94.87346512 184.54746423 -117.65186887 181.44342452 -135.953125 167.29296875 C-142.94581126 161.09361805 -147.78577661 154.2489239 -148.67578125 144.859375 C-148.98138405 135.95869341 -147.86006629 129.63650584 -142.36328125 122.59375 C-137.31867067 120.17654077 -132.83761635 120.2377374 -127.36328125 121.15625 C-124.03336416 122.40062403 -120.86749692 123.77771755 -117.66137695 125.30053711 C-112.62210193 127.6801781 -107.59375514 129.49252208 -102.23828125 131.03125 C-101.54001221 131.23387451 -100.84174316 131.43649902 -100.12231445 131.64526367 C-82.61389489 136.55592922 -60.42826644 136.76158378 -43.7265625 128.91796875 C-40.34451924 126.95674797 -36.97414242 124.80753531 -35.36328125 121.15625 C-35.03779293 117.59961774 -35.03779293 117.59961774 -36.36328125 114.15625 C-42.00321643 110.10039431 -47.67221011 108.98791373 -54.42578125 107.78125 C-56.65240769 107.35840949 -58.87896721 106.93521647 -61.10546875 106.51171875 C-62.27948242 106.29306152 -63.45349609 106.0744043 -64.66308594 105.84912109 C-69.83157564 104.8813081 -74.99329882 103.88074992 -80.15209961 102.86279297 C-82.67771398 102.36459739 -85.20451238 101.87235235 -87.73266602 101.38720703 C-104.65513255 98.06111083 -122.25543617 94.46466062 -133.36328125 80.15625 C-140.36239934 68.02444531 -140.31270314 51.95352688 -136.80078125 38.65625 C-132.88055638 27.0874745 -127.03917856 17.7143083 -118.36328125 9.15625 C-117.67621094 8.45886719 -116.98914062 7.76148438 -116.28125 7.04296875 C-88.34941548 -19.64514772 -31.05265671 -24.2262049 0 0 Z " fill="#000000" transform="translate(1467.36328125,141.84375)"/>
<path d="M0 0 C9.26308925 0.32875265 18.57175025 2.37521218 25.0625 9.3125 C29.93308147 15.0156595 29.7551919 22.19044736 29.44140625 29.3359375 C28.43104021 39.93957284 23.79968933 47.94800211 16.078125 55.16796875 C11.91173903 58.56728753 8.60093913 60.3125 3.0625 60.3125 C-0.56513265 59.49628265 -2.6667568 57.73628878 -5.375 55.3125 C-9.7356364 51.46874938 -12.97717055 50.25026732 -18.875 50.4375 C-23.21183228 51.11876484 -26.24409423 52.99506893 -29.9375 55.3125 C-31.4225 55.8075 -31.4225 55.8075 -32.9375 56.3125 C-34.00177298 58.15905234 -34.00177298 58.15905234 -34.9375 60.3125 C-35.86090445 61.65563374 -36.79953888 62.98837475 -37.75 64.3125 C-43.26724709 72.62193054 -46.15465217 81.24259575 -48.1875 90.9375 C-48.35072754 91.69329346 -48.51395508 92.44908691 -48.68212891 93.2277832 C-51.08888172 105.68830376 -51.0255243 118.50716838 -50.89453125 131.1484375 C-50.88443024 132.17039215 -50.87432922 133.1923468 -50.86392212 134.24526978 C-50.81828982 138.45985885 -50.76878465 142.67405637 -50.69067383 146.88818359 C-50.18458801 175.72844506 -50.18458801 175.72844506 -60.9375 187.3125 C-61.45054687 187.86679687 -61.96359375 188.42109375 -62.4921875 188.9921875 C-69.14235077 195.38779907 -77.12311116 197.52844746 -86.1875 197.75 C-92.50202345 197.56305687 -97.32444241 196.92555759 -101.9375 192.3125 C-102.51959005 184.7759657 -100.95703839 178.10795605 -99.1875 170.8125 C-97.02690332 161.51790593 -95.11592162 152.23878756 -93.625 142.8125 C-93.46612305 141.81798828 -93.30724609 140.82347656 -93.14355469 139.79882812 C-91.30001939 127.79761591 -90.69882315 115.93875747 -90.6875 103.8125 C-90.68598938 102.68764694 -90.68598938 102.68764694 -90.68444824 101.54006958 C-90.48293892 76.06048047 -90.48293892 76.06048047 -101.39013672 53.77758789 C-104.18757246 51.12889558 -107.57271243 49.73216007 -111.0625 48.1875 C-119.90833808 44.2188267 -119.90833808 44.2188267 -121.9375 40.3125 C-123.68222207 33.60411128 -120.79522408 27.90812628 -117.6328125 22.10546875 C-111.93635219 12.72074727 -103.62828779 5.84282939 -92.953125 2.80078125 C-83.67554688 0.55330593 -74.78098878 0.31085693 -65.9375 4.3125 C-58.94539167 8.75327104 -55.31708006 14.26876842 -53.48876953 22.27832031 C-52.51368787 26.93646069 -51.69830683 31.61509422 -50.9375 36.3125 C-50.34324219 35.28511719 -49.74898437 34.25773437 -49.13671875 33.19921875 C-40.23943 18.16731125 -30.21790691 6.09110588 -12.66015625 1.4453125 C-8.44603257 0.6694461 -4.26846328 0.33876693 0 0 Z " fill="#000000" transform="translate(683.9375,126.6875)"/>
<path d="M0 0 C8.19765204 6.24210528 10.55356327 16.24927954 12 26 C13.56667333 49.03208108 10.12989039 70.84793212 5.77734375 93.359375 C3.94569241 102.95343563 2.63191455 112.21173162 2.5625 122 C2.5473938 123.35375732 2.5473938 123.35375732 2.53198242 124.73486328 C2.61892008 131.2447061 3.53915075 136.13655783 7.91015625 141.22265625 C12.6640089 145.28629436 17.43832316 148.67445193 22.93359375 151.67578125 C25 153 25 153 27 156 C28.41074335 164.30771082 24.16344564 171.09657927 20 178 C14.22663828 186.09678777 4.63142539 190.53890369 -4.9375 192.4375 C-14.81960493 193.70676118 -25.38323321 193.35671887 -33.8984375 187.75 C-40.92096097 182.29791426 -43.36625832 175.50221147 -44.6875 166.90234375 C-46.48374216 150.21974466 -42.83327594 134.10675598 -38.5 118.125 C-37.69344308 115.10795098 -36.89241317 112.08945999 -36.09375 109.0703125 C-35.90469086 108.35741058 -35.71563171 107.64450867 -35.52084351 106.91000366 C-31.00063487 89.70949329 -26.77569833 68.00374301 -35.875 51.625 C-39.51365971 47.99750183 -44.41015436 45.56008705 -48.84375 43.02734375 C-52.65847188 40.57704591 -56.18098725 38.19322165 -57.8125 33.82421875 C-58.56933367 25.19946843 -56.16595105 20.04170306 -50.6875 13.5 C-38.19175003 0.4040175 -17.4374084 -8.51661503 0 0 Z " fill="#000000" transform="translate(786,131)"/>
<path d="M0 0 C5.39260305 4.50507047 8.51377262 10.47266161 9.5625 17.375 C10.35646166 28.52739166 8.2487969 37.31066679 1.5625 46.375 C-3.99240875 52.71764642 -10.95010825 55.92853869 -19.28515625 56.7578125 C-29.49956693 57.2051855 -37.61662789 55.59954927 -45.8125 49.25 C-52.15109438 43.16802888 -53.65791859 36.54336525 -53.9375 27.9375 C-53.59779094 17.39590338 -50.8799531 9.86697183 -43.5078125 2.25 C-32.09257838 -8.08832524 -12.670933 -8.60667147 0 0 Z " fill="#000000" transform="translate(795.4375,30.625)"/>
</svg>
